<svg width="31" height="16" viewBox="0 0 31 16" fill="none" xmlns="http://www.w3.org/2000/svg">
<path d="M14.8295 7.72727C14.8295 9.32765 14.5218 10.6842 13.9062 11.7969C13.2907 12.9096 12.4574 13.7547 11.4062 14.3324C10.3598 14.91 9.18561 15.1989 7.88352 15.1989C6.5767 15.1989 5.40009 14.9077 4.35369 14.3253C3.30729 13.7429 2.47633 12.8977 1.8608 11.7898C1.25 10.6771 0.944602 9.32292 0.944602 7.72727C0.944602 6.12689 1.25 4.77036 1.8608 3.65767C2.47633 2.54498 3.30729 1.69981 4.35369 1.12216C5.40009 0.544507 6.5767 0.255681 7.88352 0.255681C9.18561 0.255681 10.3598 0.544507 11.4062 1.12216C12.4574 1.69981 13.2907 2.54498 13.9062 3.65767C14.5218 4.77036 14.8295 6.12689 14.8295 7.72727ZM11.2358 7.72727C11.2358 6.7803 11.1009 5.98011 10.831 5.3267C10.5658 4.67329 10.1823 4.1785 9.6804 3.84233C9.18324 3.50615 8.58428 3.33807 7.88352 3.33807C7.1875 3.33807 6.58854 3.50615 6.08665 3.84233C5.58475 4.1785 5.19886 4.67329 4.92898 5.3267C4.66383 5.98011 4.53125 6.7803 4.53125 7.72727C4.53125 8.67424 4.66383 9.47443 4.92898 10.1278C5.19886 10.7812 5.58475 11.276 6.08665 11.6122C6.58854 11.9484 7.1875 12.1165 7.88352 12.1165C8.58428 12.1165 9.18324 11.9484 9.6804 11.6122C10.1823 11.276 10.5658 10.7812 10.831 10.1278C11.1009 9.47443 11.2358 8.67424 11.2358 7.72727ZM30.6108 7.72727C30.6108 9.32765 30.303 10.6842 29.6875 11.7969C29.072 12.9096 28.2386 13.7547 27.1875 14.3324C26.1411 14.91 24.9669 15.1989 23.6648 15.1989C22.358 15.1989 21.1813 14.9077 20.1349 14.3253C19.0885 13.7429 18.2576 12.8977 17.642 11.7898C17.0312 10.6771 16.7259 9.32292 16.7259 7.72727C16.7259 6.12689 17.0312 4.77036 17.642 3.65767C18.2576 2.54498 19.0885 1.69981 20.1349 1.12216C21.1813 0.544507 22.358 0.255681 23.6648 0.255681C24.9669 0.255681 26.1411 0.544507 27.1875 1.12216C28.2386 1.69981 29.072 2.54498 29.6875 3.65767C30.303 4.77036 30.6108 6.12689 30.6108 7.72727ZM27.017 7.72727C27.017 6.7803 26.8821 5.98011 26.6122 5.3267C26.3471 4.67329 25.9635 4.1785 25.4616 3.84233C24.9645 3.50615 24.3655 3.33807 23.6648 3.33807C22.9688 3.33807 22.3698 3.50615 21.8679 3.84233C21.366 4.1785 20.9801 4.67329 20.7102 5.3267C20.4451 5.98011 20.3125 6.7803 20.3125 7.72727C20.3125 8.67424 20.4451 9.47443 20.7102 10.1278C20.9801 10.7812 21.366 11.276 21.8679 11.6122C22.3698 11.9484 22.9688 12.1165 23.6648 12.1165C24.3655 12.1165 24.9645 11.9484 25.4616 11.6122C25.9635 11.276 26.3471 10.7812 26.6122 10.1278C26.8821 9.47443 27.017 8.67424 27.017 7.72727Z" fill="#2F85FE"/>
</svg>
